<svg width="171" height="131" viewBox="0 0 171 131" fill="none" xmlns="http://www.w3.org/2000/svg">
<g clip-path="url(#clip0)">
<path d="M26.3081 114.299L18.3153 113.078L14.7327 105.447C14.4651 104.878 13.5302 104.878 13.2626 105.447L9.68112 113.078L1.68829 114.299C1.03179 114.4 0.769625 115.198 1.23004 115.67L7.03671 121.622L5.66412 130.036C5.55471 130.704 6.26862 131.206 6.85904 130.878L13.9982 126.932L21.1374 130.879C21.7224 131.204 22.4428 130.712 22.3323 130.037L20.9597 121.623L26.7664 115.671C27.2268 115.198 26.9635 114.4 26.3081 114.299Z" fill="#FFC107"/>
</g>
<g clip-path="url(#clip1)">
<path d="M62.3081 114.299L54.3153 113.078L50.7327 105.447C50.4651 104.878 49.5302 104.878 49.2626 105.447L45.6811 113.078L37.6883 114.299C37.0318 114.4 36.7696 115.198 37.23 115.67L43.0367 121.622L41.6641 130.036C41.5547 130.704 42.2686 131.206 42.859 130.878L49.9982 126.932L57.1374 130.879C57.7224 131.204 58.4428 130.712 58.3323 130.037L56.9597 121.623L62.7664 115.671C63.2268 115.198 62.9635 114.4 62.3081 114.299Z" fill="#FFC107"/>
</g>
<g clip-path="url(#clip2)">
<path d="M98.3081 114.299L90.3153 113.078L86.7327 105.447C86.4651 104.878 85.5302 104.878 85.2626 105.447L81.6811 113.078L73.6883 114.299C73.0318 114.4 72.7696 115.198 73.23 115.67L79.0367 121.622L77.6641 130.036C77.5547 130.704 78.2686 131.206 78.859 130.878L85.9982 126.932L93.1374 130.879C93.7224 131.204 94.4428 130.712 94.3323 130.037L92.9597 121.623L98.7664 115.671C99.2268 115.198 98.9635 114.4 98.3081 114.299Z" fill="#FFC107"/>
</g>
<g clip-path="url(#clip3)">
<path d="M134.308 114.299L126.315 113.078L122.733 105.447C122.465 104.878 121.53 104.878 121.263 105.447L117.681 113.078L109.688 114.299C109.032 114.4 108.77 115.198 109.23 115.67L115.037 121.622L113.664 130.036C113.555 130.704 114.269 131.206 114.859 130.878L121.998 126.932L129.137 130.879C129.722 131.204 130.443 130.712 130.332 130.037L128.96 121.623L134.766 115.671C135.227 115.198 134.964 114.4 134.308 114.299Z" fill="#FFC107"/>
</g>
<g clip-path="url(#clip4)">
<path d="M170.308 114.299L162.315 113.078L158.733 105.447C158.465 104.878 157.53 104.878 157.263 105.447L153.681 113.078L145.688 114.299C145.032 114.4 144.77 115.198 145.23 115.67L151.037 121.622L149.664 130.036C149.555 130.704 150.269 131.206 150.859 130.878L157.998 126.932L165.137 130.879C165.722 131.204 166.443 130.712 166.332 130.037L164.96 121.623L170.766 115.671C171.227 115.198 170.964 114.4 170.308 114.299Z" fill="#FFC107"/>
</g>
<circle cx="91.498" cy="42.5" r="41.5" fill="white" stroke="#165ECC" stroke-width="2"/>
<g clip-path="url(#clip5)">
<path d="M114.231 70.8703V76.7931C114.231 77.4599 113.691 78 113.024 78H68.9723C68.3055 78 67.7654 77.4599 67.7654 76.7931V70.8703C67.7654 66.3157 70.4734 62.3918 74.3672 60.6222C72.7784 59.3581 70.3569 57.6591 68.5952 54.0039C66.1414 48.9201 66.5614 42.9228 69.6874 38.2282C71.3861 35.6787 72.2913 32.6856 72.2913 29.6231V23.0862C72.2913 14.7541 79.0454 8 87.3775 8H94.6189C102.951 8 109.705 14.7541 109.705 23.0862C109.705 30.0088 109.536 31.3645 110.37 34.1172C111.548 38.0096 113.103 38.4912 114.302 42.4524C116.186 48.6791 114.102 55.4698 108.966 59.5586L107.629 60.6222C111.523 62.3918 114.231 66.3157 114.231 70.8703Z" fill="#FFDFBA"/>
<path d="M114.231 70.8703V76.7931C114.231 77.4596 113.691 78 113.024 78H68.9723C68.3058 78 67.7654 77.4596 67.7654 76.7931V70.8703C67.7654 64.6605 72.7995 59.6205 79.0152 59.6205C79.9399 59.6205 80.818 59.4198 81.607 59.0608L81.6447 59.1423L90.2594 65.8116C90.6943 66.1483 91.302 66.1483 91.7371 65.8116L100.352 59.1423L100.389 59.0608C101.178 59.4198 102.056 59.6205 102.981 59.6205C109.173 59.6205 114.231 64.6365 114.231 70.8703Z" fill="#165ECC"/>
<path d="M104.791 30.0647C105.432 30.1012 105.933 30.6277 105.933 31.2695V38.4937C105.933 44.7198 102.124 50.0558 96.7082 52.2976C86.9147 56.3629 76.0627 49.1409 76.0627 38.4937V31.3745C76.0627 30.6671 76.6686 30.1082 77.3731 30.172C84.6125 30.8284 91.7415 29.0002 97.7279 24.9674C98.4087 24.5088 99.3462 24.8485 99.5612 25.6409C100.306 28.3856 102.337 29.9249 104.791 30.0647Z" fill="#FFEBD2"/>
<path d="M108.966 59.5586L107.629 60.6222C106.213 59.9795 104.639 59.6205 102.981 59.6205C99.5371 59.6205 96.7309 56.8393 96.7309 53.3838V52.3534L96.7083 52.2976C102.124 50.0558 105.933 44.7198 105.933 38.4937V31.2696C105.933 30.6278 105.432 30.1013 104.791 30.0648C102.352 29.9258 100.311 28.4033 99.5612 25.6411C99.3462 24.8487 98.4088 24.509 97.7279 24.9676C91.7455 28.9977 84.617 30.8289 77.3732 30.1722C76.6686 30.1084 76.0628 30.6673 76.0628 31.3747V38.4939C76.0628 44.72 79.8721 50.056 85.288 52.2978L85.2654 52.3536V53.384C85.2654 56.8389 82.4599 59.6206 79.0152 59.6206C77.3572 59.6206 75.7837 59.9797 74.3671 60.6223L73.0305 59.5588C66.5417 54.3884 65.0969 45.122 69.6874 38.2284C71.3861 35.6788 72.2912 32.6857 72.2912 29.6232V23.0862C72.2912 14.7544 79.0456 8 87.3774 8H94.6188C102.951 8 109.705 14.7544 109.705 23.0862V29.6231C109.705 32.6819 110.61 35.6787 112.309 38.2282C116.916 45.1471 115.43 54.4124 108.966 59.5586Z" fill="#42434D"/>
<path d="M96.9014 54.8306C93.1846 56.3864 89.1001 56.5071 85.095 54.8306C85.2995 53.9818 85.2654 53.4321 85.2654 52.3534L85.2881 52.2976C88.9211 53.8056 93.0682 53.8086 96.7083 52.2976L96.731 52.3534C96.731 53.4325 96.6969 53.9821 96.9014 54.8306Z" fill="#FFD6A6"/>
<path d="M101.434 9.62358C102.975 10.405 102.305 12.7565 100.585 12.5938C100.111 12.5488 99.6305 12.5259 99.1446 12.5259H91.9032C83.5714 12.5259 76.817 19.2803 76.817 27.6121V29.4478C76.817 30.5316 76.0627 30.4966 76.0627 31.3746C76.0627 39.3434 76.095 38.8389 75.9781 39.1827C74.7946 42.6643 73.3733 43.1682 72.2203 46.9782C71.5922 49.0535 71.4067 51.1906 71.6242 53.2645C71.8018 54.9572 69.4448 55.7669 68.595 54.0039C66.1588 48.9565 66.5403 42.9543 69.6873 38.2282C71.386 35.6787 72.2912 32.6856 72.2912 29.6231V23.0862C72.2912 14.7544 79.0456 8 87.3774 8H94.6187C97.0713 8 99.387 8.58519 101.434 9.62358Z" fill="#4D4E59"/>
<path d="M88.1349 48.4987C90.3886 50.0074 88.6709 53.4968 86.1118 52.5987C80.4868 50.6248 76.0627 45.375 76.0627 38.4936V31.3744C76.0627 30.6669 76.6692 30.1087 77.3737 30.172C77.9518 30.2245 78.5867 30.2659 79.2717 30.2868C80.5117 30.3245 81.4938 31.3484 81.4938 32.589V36.0799C81.4938 41.3339 84.1725 45.8464 88.1349 48.4987Z" fill="#FFF3E4"/>
<path d="M84.1329 61.0686C84.8489 61.6229 84.4705 62.7851 83.565 62.7886C77.1786 62.8124 72.2912 67.9404 72.2912 74.0384V78H68.9723C68.3058 78 67.7654 77.4596 67.7654 76.7931V70.8703C67.7654 64.6603 72.7996 59.6205 79.0152 59.6205C79.94 59.6205 80.818 59.4198 81.607 59.0608L81.6447 59.1423L84.1329 61.0686Z" fill="#165ECC"/>
<path d="M97.8633 61.0686C97.1473 61.6229 97.5256 62.7851 98.4311 62.7886C104.818 62.8124 109.705 67.9404 109.705 74.0384V78H113.024C113.69 78 114.231 77.4596 114.231 76.7931V70.8703C114.231 64.6603 109.196 59.6205 102.981 59.6205C102.056 59.6205 101.178 59.4198 100.389 59.0608L100.351 59.1423L97.8633 61.0686Z" fill="#165ECC"/>
</g>
<defs>
<clipPath id="clip0">
<rect width="26" height="26" fill="white" transform="translate(0.998291 105)"/>
</clipPath>
<clipPath id="clip1">
<rect width="26" height="26" fill="white" transform="translate(36.9983 105)"/>
</clipPath>
<clipPath id="clip2">
<rect width="26" height="26" fill="white" transform="translate(72.9983 105)"/>
</clipPath>
<clipPath id="clip3">
<rect width="26" height="26" fill="white" transform="translate(108.998 105)"/>
</clipPath>
<clipPath id="clip4">
<rect width="26" height="26" fill="white" transform="translate(144.998 105)"/>
</clipPath>
<clipPath id="clip5">
<rect width="70" height="70" fill="white" transform="translate(55.998 8)"/>
</clipPath>
</defs>
</svg>
